<?xml version="1.0" encoding="UTF-8"?>
<!DOCTYPE svg PUBLIC "-//W3C//DTD SVG 1.1//EN" "http://www.w3.org/Graphics/SVG/1.1/DTD/svg11.dtd">
<!-- Creator: CorelDRAW X8 -->
<svg xmlns="http://www.w3.org/2000/svg" xml:space="preserve" width="8.5in" height="11in" version="1.1" style="shape-rendering:geometricPrecision; text-rendering:geometricPrecision; image-rendering:optimizeQuality; fill-rule:evenodd; clip-rule:evenodd"
viewBox="0 0 8500 11000"
 xmlns:xlink="http://www.w3.org/1999/xlink">
 <defs>
  <style type="text/css">
   <![CDATA[
    .fil0 {fill:#008491}
    .fil1 {fill:#008491;fill-rule:nonzero}
   ]]>
  </style>
 </defs>
 <g id="Слой_x0020_1">
  <metadata id="CorelCorpID_0Corel-Layer"/>
  <g id="_732938945312">
   <path class="fil0" d="M9911 -9008c0,100 -13,163 -64,239 -34,50 -81,93 -137,121 -67,34 -156,24 -235,24 -1122,5 -2244,10 -3365,15 -28,53 -88,150 -120,198 -9,14 -16,25 -25,39 -84,128 -169,255 -266,371l-45 51c-33,40 -71,78 -108,115l-245 202 -156 102 4462 -19c176,0 332,0 494,-66l79 -32c74,-31 144,-80 208,-128 10,-8 20,-14 30,-23l183 -181c57,-68 104,-138 149,-214 117,-194 195,-469 194,-697 -2,-518 -295,-1039 -803,-1221 -80,-28 -165,-53 -251,-60 -77,-6 -150,-8 -230,-8l-1880 8c-101,0 -158,-21 -211,-102 -19,-30 -35,-70 -47,-109 -14,-47 -18,-108 -18,-164l-1288 5c9,99 28,190 47,279 10,44 24,86 37,126 27,79 62,154 103,227 10,18 19,32 30,49l68 95c55,67 115,132 185,184 10,7 14,11 24,18l175 109c132,66 254,118 417,117l2292 -10c60,0 93,9 131,31 17,11 33,21 48,35 45,39 82,82 106,140 14,36 31,82 32,134z"/>
   <path class="fil0" d="M4705 -9681c1,124 -35,234 -80,331 -88,187 -217,328 -370,453 -72,58 -161,113 -260,156 -240,105 -456,89 -735,91 -276,2 -552,3 -828,5l-878 1114c63,5 398,-1 491,-2l1729 -10c261,-2 393,-6 653,-92 263,-88 558,-263 744,-430 11,-11 21,-20 33,-30l64 -59c23,-20 42,-38 63,-59 21,-22 39,-41 59,-64l58 -65c19,-23 38,-43 56,-67 20,-24 36,-45 55,-71 136,-180 255,-389 340,-648 101,-311 108,-555 106,-880 -2,-329 -8,-660 -6,-989 35,-5 720,-5 775,-6 1122,-6 3004,-9 4120,-45 -139,-156 -642,-955 -746,-1081l-5458 -1 15 2449z"/>
   <path class="fil1" d="M2044 -6364l-502 0 0 -155 134 0 0 -577 -134 0 0 -155 502 0 0 155 -134 0 0 577 134 0 0 155zm951 0l-225 0 -359 -619 0 619 -213 0 0 -887 286 0 297 508 0 -508 214 0 0 887zm984 0l-225 0 -359 -619 0 619 -213 0 0 -887 286 0 298 508 0 -508 213 0 0 887zm1033 -443c0,143 -40,256 -121,338 -80,82 -190,124 -329,124 -140,0 -250,-42 -330,-125 -80,-84 -120,-196 -120,-337 0,-143 40,-256 120,-338 80,-83 190,-125 330,-125 139,0 249,42 329,124 81,82 121,195 121,339zm-241 -1c0,-53 -5,-98 -17,-135 -11,-37 -26,-68 -46,-91 -20,-25 -42,-42 -67,-53 -26,-10 -52,-15 -79,-15 -28,0 -55,4 -78,14 -23,10 -46,27 -67,52 -19,23 -35,54 -47,92 -12,38 -18,84 -18,137 0,54 6,99 17,135 12,36 27,66 46,91 20,24 43,42 69,52 25,11 51,16 78,16 28,0 54,-5 80,-17 26,-11 48,-29 67,-53 20,-25 35,-55 46,-90 11,-34 16,-79 16,-135zm1155 -443l-319 887 -244 0 -319 -887 241 0 203 601 202 -601 236 0zm-14 887l314 -887 255 0 314 887 -240 0 -58 -179 -294 0 -58 179 -233 0zm533 -342l-95 -294 -96 294 191 0zm620 342l0 -718 -275 0 0 -169 783 0 0 169 -275 0 0 718 -233 0zm1067 0l-502 0 0 -155 134 0 0 -577 -134 0 0 -155 502 0 0 155 -134 0 0 577 134 0 0 155zm999 -443c0,143 -40,256 -120,338 -80,82 -190,124 -330,124 -140,0 -250,-42 -330,-125 -79,-84 -119,-196 -119,-337 0,-143 40,-256 119,-338 80,-83 190,-125 330,-125 140,0 250,42 330,124 80,82 120,195 120,339zm-240 -1c0,-53 -6,-98 -17,-135 -12,-37 -27,-68 -46,-91 -20,-25 -43,-42 -68,-53 -25,-10 -51,-15 -78,-15 -29,0 -55,4 -78,14 -24,10 -46,27 -68,52 -19,23 -34,54 -46,92 -12,38 -18,84 -18,137 0,54 5,99 17,135 11,36 26,66 46,91 20,24 43,42 68,52 25,11 52,16 79,16 27,0 54,-5 80,-17 25,-11 48,-29 67,-53 20,-25 35,-55 46,-90 11,-34 16,-79 16,-135zm1175 444l-224 0 -360 -619 0 619 -213 0 0 -887 287 0 297 508 0 -508 213 0 0 887zm474 16c-70,0 -133,-6 -187,-20 -54,-13 -103,-29 -150,-48l0 -211 22 0c46,37 97,66 153,86 56,21 111,31 163,31 14,0 31,-2 53,-4 22,-3 39,-7 52,-14 16,-6 30,-16 41,-28 12,-12 17,-28 17,-47 0,-23 -9,-41 -27,-55 -18,-14 -40,-24 -66,-30 -31,-8 -65,-16 -101,-23 -36,-7 -69,-16 -100,-26 -72,-24 -124,-57 -155,-98 -31,-41 -46,-92 -46,-153 0,-84 36,-151 110,-202 73,-52 165,-77 275,-77 56,0 111,5 165,16 55,11 104,25 147,43l0 203 -20 0c-35,-28 -77,-51 -126,-71 -50,-19 -101,-29 -153,-29 -21,0 -39,2 -55,4 -16,3 -33,8 -51,16 -15,6 -27,16 -38,28 -10,13 -16,26 -16,42 0,22 9,40 26,54 16,13 49,25 97,36 31,7 61,13 90,19 29,7 60,15 92,27 65,22 113,52 144,89 31,38 47,87 47,149 0,88 -36,159 -109,213 -72,53 -170,80 -294,80z"/>
  </g>
 </g>
</svg>
